<svg xmlns="http://www.w3.org/2000/svg" width="22.717" height="29" viewBox="0 0 22.717 29"><defs><style>.a{fill:#00aae2;}</style></defs><g transform="translate(-6.5)"><path class="a" d="M29.067,22H16.983a.483.483,0,0,0,0,.967H29.067a.483.483,0,1,0,0-.967Z" transform="translate(-5.167 -11.367)"/><path class="a" d="M16.983,14.967h4.833a.483.483,0,1,0,0-.967H16.983a.483.483,0,1,0,0,.967Z" transform="translate(-5.167 -7.233)"/><path class="a" d="M29.067,30H16.983a.483.483,0,0,0,0,.967H29.067a.483.483,0,1,0,0-.967Z" transform="translate(-5.167 -15.5)"/><path class="a" d="M29.067,38H16.983a.483.483,0,0,0,0,.967H29.067a.483.483,0,1,0,0-.967Z" transform="translate(-5.167 -19.633)"/><path class="a" d="M29.067,46H16.983a.483.483,0,1,0,0,.967H29.067a.483.483,0,1,0,0-.967Z" transform="translate(-5.167 -23.767)"/><path class="a" d="M22.167,0H6.5V29H29.217V7.05Zm.283,1.65,5.117,5.117H22.45ZM7.467,28.033V.967H21.483V7.733H28.25v20.3Z"/></g></svg>