<svg xmlns="http://www.w3.org/2000/svg" width="30" height="30" viewBox="0 0 30 30"><defs><style>.a{fill:#00aae2;}.b{fill:#5b489c;}</style></defs><g transform="translate(0 0)"><ellipse class="a" cx="15" cy="4" rx="15" ry="4" transform="translate(0 22)"/><path class="b" d="M27.484,2.8h0a10.085,10.085,0,0,0-13.949,0h0a10.707,10.707,0,0,0-.916,13.508l7.89,11.048L28.4,16.309A10.706,10.706,0,0,0,27.484,2.8Zm-6.878,9.825A3.207,3.207,0,0,1,17.35,9.47a3.257,3.257,0,0,1,6.512,0A3.207,3.207,0,0,1,20.606,12.626Z" transform="translate(-5.455 0)"/></g></svg>