<svg xmlns="http://www.w3.org/2000/svg" width="19.711" height="35.055" viewBox="0 0 19.711 35.055"><defs><style>.a{fill:#2d4961;}.b{fill:#123247;}.c{fill:#44637f;}.d{fill:#ffcb5b;}.e{fill:#ffdb6f;}.f{fill:#f7b84e;}.g{fill:#3689c9;}.h{fill:#e2e5e7;}.i{fill:#4c9fd7;}.j{fill:#f1f2f2;}</style></defs><g transform="translate(-112.059)"><path class="a" d="M130.543,8.7a3.286,3.286,0,0,0,1.226-2.562V2.19A2.19,2.19,0,0,0,129.579,0h-15.33a2.19,2.19,0,0,0-2.19,2.19V6.138A3.286,3.286,0,0,0,113.285,8.7l7.534,6.056v1.287l-2.387,5.081-5.311.81a1.232,1.232,0,0,0-.712,2.075l3.876,3.975-.942,5.628a1.232,1.232,0,0,0,1.812,1.276l4.758-2.617,4.736,2.617a1.232,1.232,0,0,0,1.834-1.276l-.942-5.628,3.876-3.975a1.232,1.232,0,0,0-.7-2.075l-5.311-.81-2.4-5.086V14.755Z" transform="translate(0)"/><path class="b" d="M279.658,33.082v3.154a1.644,1.644,0,0,1-.619,1.281l-5.951,4.769a2.9,2.9,0,0,0-1.1,2.267h0l7.534-6.056a3.286,3.286,0,0,0,1.226-2.562V31.987A1.1,1.1,0,0,0,279.658,33.082Z" transform="translate(-148.984 -29.797)"/><path class="c" d="M114.249,0a2.19,2.19,0,0,0-2.19,2.19V6.023h0a1.1,1.1,0,0,0,1.095-1.1V2.19a1.1,1.1,0,0,1,1.1-1.1h14.235a1.1,1.1,0,0,0,1.1-1.1h-15.33Z" transform="translate(0)"/><path class="b" d="M180.347,335.185l3.876-3.975a1.137,1.137,0,0,0,.2-1.429,1.387,1.387,0,0,0-.756.318l-3.1,3.181a2.189,2.189,0,0,0-.591,1.883l.739,4.533a1.232,1.232,0,0,1-1.812,1.276l-3.674-2.015a2.19,2.19,0,0,0-2.146,0l-3.646,2.026a.706.706,0,0,1-.159.055.722.722,0,0,0-.5.892.734.734,0,0,0,.066.159h0a1.221,1.221,0,0,0,1.15,0l4.731-2.617,4.736,2.617a1.232,1.232,0,0,0,1.834-1.276Z" transform="translate(-52.804 -307.202)"/><path class="d" d="M165.716,285.794l-4.068,2.25.777-4.774-3.345-3.427,4.621-.706,2.015-4.293,2.015,4.293,4.621.706-3.345,3.427.778,4.774Z" transform="translate(-43.802 -256.026)"/><path class="e" d="M164.314,280.029l1.916-4.084-.515-1.1-2.015,4.293-4.621.706.838.86Z" transform="translate(-43.802 -256.026)"/><path class="f" d="M207.288,345.32l-1.221-.186-2.738,2.809.777,4.769-4.068-2.245-3.247,1.79-.208,1.265,4.068-2.25,4.068,2.25-.777-4.774Z" transform="translate(-78.738 -321.503)"/><path class="g" d="M144.457,36.789a1.094,1.094,0,0,1-.411-.854V31.987h15.33v3.948a1.094,1.094,0,0,1-.411.854l-7.255,5.831Z" transform="translate(-29.797 -29.797)"/><g transform="translate(116.987 3.285)"><path class="h" d="M298.172,53.559V47.98h-2.19v7.337Z" transform="translate(-288.317 -47.98)"/><path class="h" d="M186.219,55.317V47.98h-2.19v5.579Z" transform="translate(-184.029 -47.98)"/><path class="h" d="M240.005,56.636l1.1.882,1.1-.882V47.98h-2.19Z" transform="translate(-236.172 -47.98)"/></g><rect class="i" width="15.33" height="1.095" transform="translate(114.247 2.19)"/><g transform="translate(116.985 2.19)"><rect class="j" width="2.19" height="1.095"/><rect class="j" width="2.19" height="1.095" transform="translate(3.833)"/><rect class="j" width="2.19" height="1.095" transform="translate(7.665)"/></g><path class="c" d="M120.879,215.908v1.259l-2.387,5.081-5.311.81a1.232,1.232,0,0,0-.712,2.075l.2.208a1.215,1.215,0,0,1,1.04-1.188l4.2-.641a2.19,2.19,0,0,0,1.643-1.172l2.141-4.243a2.581,2.581,0,0,0,.285-1.172h0a1.019,1.019,0,0,0-1.018-1.018h-.077Z" transform="translate(-0.06 -201.125)"/></g></svg>