<svg xmlns="http://www.w3.org/2000/svg" width="19.416" height="19.415" viewBox="0 0 19.416 19.415"><defs><style>.a{fill:#5b489c;}</style></defs><g transform="translate(0 -0.001)"><g transform="translate(0 0.001)"><path class="a" d="M18.989,6.442,17.537,5A2.225,2.225,0,0,1,14.4,5a2.133,2.133,0,0,1-.645-1.567A2.134,2.134,0,0,1,14.4,1.868L12.963.427a1.489,1.489,0,0,0-2.086,0L.426,10.867a1.488,1.488,0,0,0,0,2.086L1.867,14.4a2.134,2.134,0,0,1,1.567-.645A2.133,2.133,0,0,1,5,14.4a2.226,2.226,0,0,1,0,3.134L6.453,18.99a1.489,1.489,0,0,0,2.086,0L18.989,8.528a1.489,1.489,0,0,0,0-2.085Zm-3.123,2.3L8.746,15.867a.751.751,0,0,1-1.037,0L3.538,11.7a.724.724,0,0,1,0-1.037l7.121-7.121a.752.752,0,0,1,1.037,0L15.867,7.71a.723.723,0,0,1,0,1.037Z" transform="translate(0 -0.001)"/><path class="a" d="M120.243,113.639l3.641,3.641-6.591,6.591-3.641-3.641Z" transform="translate(-109.065 -109.053)"/></g></g></svg>